<?xml version="1.0" encoding="utf-8"?>
<svg width="151px" height="36px" viewBox="0 0 151 36" version="1.1" xmlns:xlink="http://www.w3.org/1999/xlink" xmlns="http://www.w3.org/2000/svg">
  <g id="Group-4">
    <g id="Group-3">
      <g id="takealot">
        <g id="takealot" fill="#4C4C4E">
          <path d="M10.5149 12.6989L10.5149 16.108L7.43608 16.108L7.43608 24.0341Q7.43608 24.9716 7.86222 25.3018Q8.28835 25.6321 8.97017 25.6321Q9.28977 25.6321 9.60938 25.5735Q9.92898 25.5149 10.0994 25.483L10.8132 28.8601Q10.4723 28.9666 9.8544 29.1104Q9.23651 29.2543 8.35227 29.2862Q5.88068 29.3928 4.38388 28.2156Q2.88707 27.0384 2.89773 24.6307L2.89773 16.108L0.660511 16.108L0.660511 12.6989L2.89773 12.6989L2.89773 8.77841L7.43608 8.77841L7.43608 12.6989L10.5149 12.6989ZM18.1321 29.3714Q15.7884 29.3714 14.2436 28.1463Q12.6989 26.9212 12.6989 24.4922Q12.6989 22.6598 13.5618 21.6158Q14.4247 20.5717 15.8256 20.087Q17.2266 19.6023 18.8459 19.4531Q20.9766 19.2401 21.8928 19.0057Q22.8089 18.7713 22.8089 17.983L22.8089 17.919Q22.8089 16.907 22.1751 16.353Q21.5412 15.799 20.38 15.799Q19.1548 15.799 18.4304 16.3317Q17.706 16.8643 17.4716 17.6847L13.2741 17.3438Q13.7429 15.1065 15.6019 13.7962Q17.4609 12.4858 20.4013 12.4858Q22.223 12.4858 23.8104 13.0611Q25.3977 13.6364 26.3725 14.8562Q27.3473 16.076 27.3473 18.0256L27.3473 29.0625L23.0433 29.0625L23.0433 26.7933L22.9155 26.7933Q22.3189 27.9332 21.131 28.6523Q19.9432 29.3714 18.1321 29.3714ZM19.4318 26.2393Q20.9233 26.2393 21.8821 25.3711Q22.8409 24.5028 22.8409 23.2138L22.8409 21.4773Q22.5746 21.6584 22.0153 21.7969Q21.456 21.9354 20.8221 22.0366Q20.1882 22.1378 19.6875 22.2124Q18.4943 22.3828 17.7646 22.8835Q17.0348 23.3842 17.0348 24.343Q17.0348 25.2805 17.7113 25.7599Q18.3878 26.2393 19.4318 26.2393ZM30.8736 29.0625L30.8736 7.24432L35.4119 7.24432L35.4119 18.9098L35.657 18.9098L40.8984 12.6989L46.108 12.6989L40.0355 19.7834L46.4169 29.0625L41.1009 29.0625L36.6371 22.468L35.4119 23.8636L35.4119 29.0625L30.8736 29.0625ZM55.0994 29.3821Q52.5852 29.3821 50.7635 28.354Q48.9418 27.326 47.9616 25.435Q46.9815 23.544 46.9815 20.9553Q46.9815 18.4304 47.9616 16.5234Q48.9418 14.6165 50.7262 13.5511Q52.5107 12.4858 54.9183 12.4858Q57.081 12.4858 58.8228 13.402Q60.5646 14.3182 61.5874 16.1665Q62.6101 18.0149 62.6101 20.7955L62.6101 22.0419L51.4666 22.0419L51.4666 22.0526Q51.4666 23.8849 52.468 24.9396Q53.4695 25.9943 55.174 25.9943Q56.3139 25.9943 57.1449 25.5149Q57.9759 25.0355 58.3168 24.098L62.5142 24.375Q62.0348 26.6548 60.0852 28.0185Q58.1357 29.3821 55.0994 29.3821ZM51.4666 19.2294L58.3381 19.2294Q58.3274 17.7699 57.4006 16.8217Q56.4737 15.8736 54.9929 15.8736Q53.4801 15.8736 52.5107 16.8537Q51.5412 17.8338 51.4666 19.2294ZM70.2379 29.3714Q67.8942 29.3714 66.3494 28.1463Q64.8047 26.9212 64.8047 24.4922Q64.8047 22.6598 65.6676 21.6158Q66.5305 20.5717 67.9315 20.087Q69.3324 19.6023 70.9517 19.4531Q73.0824 19.2401 73.9986 19.0057Q74.9148 18.7713 74.9148 17.983L74.9148 17.919Q74.9148 16.907 74.2809 16.353Q73.647 15.799 72.4858 15.799Q71.2607 15.799 70.5362 16.3317Q69.8118 16.8643 69.5774 17.6847L65.38 17.3438Q65.8487 15.1065 67.7077 13.7962Q69.5668 12.4858 72.5071 12.4858Q74.3288 12.4858 75.9162 13.0611Q77.5036 13.6364 78.4783 14.8562Q79.4531 16.076 79.4531 18.0256L79.4531 29.0625L75.1491 29.0625L75.1491 26.7933L75.0213 26.7933Q74.4247 27.9332 73.2369 28.6523Q72.049 29.3714 70.2379 29.3714ZM71.5376 26.2393Q73.0291 26.2393 73.9879 25.3711Q74.9467 24.5028 74.9467 23.2138L74.9467 21.4773Q74.6804 21.6584 74.1211 21.7969Q73.5618 21.9354 72.9279 22.0366Q72.294 22.1378 71.7933 22.2124Q70.6001 22.3828 69.8704 22.8835Q69.1406 23.3842 69.1406 24.343Q69.1406 25.2805 69.8171 25.7599Q70.4936 26.2393 71.5376 26.2393ZM87.5178 7.24432L87.5178 29.0625L82.9794 29.0625L82.9794 7.24432L87.5178 7.24432ZM98.5334 29.3821Q96.0511 29.3821 94.2454 28.3221Q92.4396 27.2621 91.4595 25.3604Q90.4794 23.4588 90.4794 20.9446Q90.4794 18.4091 91.4595 16.5075Q92.4396 14.6058 94.2454 13.5458Q96.0511 12.4858 98.5334 12.4858Q101.016 12.4858 102.821 13.5458Q104.627 14.6058 105.607 16.5075Q106.587 18.4091 106.587 20.9446Q106.587 23.4588 105.607 25.3604Q104.627 27.2621 102.821 28.3221Q101.016 29.3821 98.5334 29.3821ZM98.5547 25.8665Q100.238 25.8665 101.106 24.4602Q101.974 23.054 101.974 20.9126Q101.974 18.7713 101.106 17.3597Q100.238 15.9482 98.5547 15.9482Q96.8395 15.9482 95.9659 17.3597Q95.0923 18.7713 95.0923 20.9126Q95.0923 23.054 95.9659 24.4602Q96.8395 25.8665 98.5547 25.8665ZM118.253 12.6989L118.253 16.108L115.174 16.108L115.174 24.0341Q115.174 24.9716 115.6 25.3018Q116.026 25.6321 116.708 25.6321Q117.028 25.6321 117.347 25.5735Q117.667 25.5149 117.837 25.483L118.551 28.8601Q118.21 28.9666 117.592 29.1104Q116.974 29.2543 116.09 29.2862Q113.619 29.3928 112.122 28.2156Q110.625 27.0384 110.636 24.6307L110.636 16.108L108.398 16.108L108.398 12.6989L110.636 12.6989L110.636 8.77841L115.174 8.77841L115.174 12.6989L118.253 12.6989Z" />
        </g>
      </g>
    </g>
    <g id="Group-2" transform="translate(121 3)">
      <g id="Group">
        <path d="M0 15C0 6.71573 6.71573 0 15 0C23.2843 0 30 6.71573 30 15C30 23.2843 23.2843 30 15 30C6.71573 30 0 23.2843 0 15Z" id="Oval" fill="#0A79C0" fill-rule="evenodd" stroke="none" />
        <g id="com" transform="translate(3 8)">
          <g id="com" fill="#FFFFFF">
            <path d="M3.375 10.7734Q2.45313 10.7734 1.79102 10.3809Q1.12891 9.98828 0.775391 9.28906Q0.421875 8.58984 0.421875 7.67969Q0.421875 6.75781 0.779297 6.06055Q1.13672 5.36328 1.79688 4.9707Q2.45703 4.57813 3.36719 4.57813Q4.15234 4.57813 4.74414 4.86328Q5.33594 5.14844 5.67773 5.66406Q6.01953 6.17969 6.05469 6.875L4.48438 6.875Q4.41797 6.42578 4.13477 6.15039Q3.85156 5.875 3.39453 5.875Q2.81641 5.875 2.46484 6.33984Q2.11328 6.80469 2.11328 7.65625Q2.11328 8.51563 2.46289 8.98633Q2.8125 9.45703 3.39453 9.45703Q3.82422 9.45703 4.11719 9.19727Q4.41016 8.9375 4.48438 8.45703L6.05469 8.45703Q6.01563 9.14453 5.68164 9.66797Q5.34766 10.1914 4.76172 10.4824Q4.17578 10.7734 3.375 10.7734ZM9.83594 10.7734Q8.92578 10.7734 8.26367 10.3848Q7.60156 9.99609 7.24219 9.29883Q6.88281 8.60156 6.88281 7.67969Q6.88281 6.75 7.24219 6.05273Q7.60156 5.35547 8.26367 4.9668Q8.92578 4.57813 9.83594 4.57813Q10.7461 4.57813 11.4082 4.9668Q12.0703 5.35547 12.4297 6.05273Q12.7891 6.75 12.7891 7.67969Q12.7891 8.60156 12.4297 9.29883Q12.0703 9.99609 11.4082 10.3848Q10.7461 10.7734 9.83594 10.7734ZM9.84375 9.48438Q10.4609 9.48438 10.7793 8.96875Q11.0977 8.45313 11.0977 7.66797Q11.0977 6.88281 10.7793 6.36523Q10.4609 5.84766 9.84375 5.84766Q9.21484 5.84766 8.89453 6.36523Q8.57422 6.88281 8.57422 7.66797Q8.57422 8.45313 8.89453 8.96875Q9.21484 9.48438 9.84375 9.48438ZM13.875 10.6563L13.875 4.65625L15.4609 4.65625L15.4609 5.71484L15.5313 5.71484Q15.7188 5.18359 16.1582 4.88086Q16.5977 4.57813 17.2031 4.57813Q17.8203 4.57813 18.2539 4.88477Q18.6875 5.19141 18.832 5.71484L18.8945 5.71484Q19.0781 5.19922 19.5605 4.88867Q20.043 4.57813 20.7031 4.57813Q21.543 4.57813 22.0684 5.11133Q22.5938 5.64453 22.5938 6.62109L22.5938 10.6563L20.9336 10.6563L20.9336 6.94922Q20.9336 6.44922 20.668 6.19922Q20.4023 5.94922 20.0039 5.94922Q19.5508 5.94922 19.2969 6.23828Q19.043 6.52734 19.043 6.99219L19.043 10.6563L17.4297 10.6563L17.4297 6.91406Q17.4297 6.47266 17.1777 6.21094Q16.9258 5.94922 16.5156 5.94922Q16.1016 5.94922 15.8203 6.25195Q15.5391 6.55469 15.5391 7.05469L15.5391 10.6563L13.875 10.6563Z" />
          </g>
        </g>
      </g>
    </g>
  </g>
</svg>